<svg width="1649" height="319" viewBox="0 0 1649 319" fill="none" xmlns="http://www.w3.org/2000/svg">
<g style="mix-blend-mode:overlay" opacity="0.32">
<g opacity="0.85">
<path d="M61.8709 318.565C50.7047 318.565 40.439 315.774 31.1639 310.191C21.8888 304.608 14.4147 297.134 8.83159 287.858C3.24851 278.583 0.457031 268.318 0.457031 257.151V61.6536C0.457031 50.4874 3.24851 40.2217 8.83159 30.9466C14.4147 21.6715 21.8888 14.1973 31.1639 8.61418C40.439 3.0311 50.7047 0.239624 61.8709 0.239624H256.919C268.085 0.239624 278.441 3.0311 287.896 8.61418C297.351 14.1973 304.825 21.6715 310.408 30.9466C315.991 40.2217 318.783 50.4874 318.783 61.6536V86.4173H259.98V64.2651C259.98 62.8243 259.35 61.5635 258.179 60.4829C257.009 59.4023 255.658 58.9522 254.217 58.9522H64.0321C62.5913 58.9522 61.3307 59.4924 60.2501 60.4829C59.1695 61.5635 58.7191 62.7343 58.7191 64.2651V254.45C58.7191 255.891 59.2595 257.151 60.2501 258.232C61.2406 259.313 62.5013 259.763 64.0321 259.763H254.217C255.658 259.763 257.009 259.223 258.179 258.232C259.35 257.151 259.98 255.981 259.98 254.45V196.998H187.941V138.196H318.873V257.151C318.873 268.318 316.081 278.583 310.498 287.858C304.915 297.134 297.351 304.608 287.986 310.191C278.531 315.774 268.265 318.565 257.009 318.565H61.9609H61.8709Z" fill="white"/>
<path d="M516.443 318.565C505.277 318.565 495.011 315.774 485.736 310.191C476.461 304.608 468.987 297.134 463.404 287.858C457.821 278.583 455.029 268.318 455.029 257.151V61.6536C455.029 50.4874 457.821 40.2217 463.404 30.9466C468.987 21.6715 476.461 14.1973 485.736 8.61418C495.011 3.0311 505.277 0.239624 516.443 0.239624H711.941C723.107 0.239624 733.373 3.0311 742.648 8.61418C751.923 14.1973 759.397 21.6715 764.98 30.9466C770.564 40.2217 773.355 50.4874 773.355 61.6536V257.151C773.355 268.318 770.564 278.583 764.98 287.858C759.397 297.134 751.923 304.608 742.648 310.191C733.373 315.774 723.107 318.565 711.941 318.565H516.443ZM518.604 259.763H708.789C710.23 259.763 711.581 259.223 712.752 258.232C713.922 257.242 714.553 255.981 714.553 254.45V64.2651C714.553 62.8243 713.922 61.5635 712.752 60.4829C711.581 59.4023 710.23 58.9522 708.789 58.9522H518.604C517.164 58.9522 515.903 59.4924 514.822 60.4829C513.742 61.4735 513.291 62.7343 513.291 64.2651V254.45C513.291 255.891 513.832 257.151 514.822 258.232C515.813 259.313 517.074 259.763 518.604 259.763Z" fill="white"/>
</g>
<g opacity="0.85">
<path d="M940.52 318.566C929.264 318.566 919.088 315.774 909.813 310.191C900.538 304.608 893.064 297.134 887.481 287.859C881.898 278.583 879.106 268.318 879.106 257.152V61.6537C879.106 50.4875 881.898 40.2218 887.481 30.9467C893.064 21.6716 900.538 14.1973 909.813 8.61424C919.088 3.03116 929.354 0.239685 940.52 0.239685H1196.53V59.0421H952.857C948.175 59.0421 944.393 60.3929 941.601 63.0044C938.809 65.6158 937.369 69.4879 937.369 74.5307V244.365C937.369 249.047 938.719 252.829 941.601 255.621C944.483 258.412 948.175 259.853 952.857 259.853H1196.53V318.656H940.52V318.566Z" fill="white"/>
<path d="M1391.49 318.566C1380.32 318.566 1370.06 315.774 1360.78 310.191C1351.51 304.608 1344.03 297.134 1338.45 287.859C1332.87 278.583 1330.08 268.318 1330.08 257.152V61.6537C1330.08 50.4875 1332.87 40.2218 1338.45 30.9467C1344.03 21.6716 1351.51 14.1973 1360.78 8.61424C1370.06 3.03116 1380.32 0.239685 1391.49 0.239685H1586.99C1598.15 0.239685 1608.42 3.03116 1617.7 8.61424C1626.97 14.1973 1634.45 21.6716 1640.03 30.9467C1645.61 40.2218 1648.4 50.4875 1648.4 61.6537V257.152C1648.4 268.318 1645.61 278.583 1640.03 287.859C1634.45 297.134 1626.97 304.608 1617.7 310.191C1608.42 315.774 1598.15 318.566 1586.99 318.566H1391.49ZM1393.74 259.763H1583.93C1585.37 259.763 1586.72 259.223 1587.89 258.232C1589.06 257.242 1589.69 255.981 1589.69 254.45V64.2652C1589.69 62.8244 1589.06 61.5636 1587.89 60.483C1586.72 59.4024 1585.37 58.9523 1583.93 58.9523H1393.74C1392.21 58.9523 1391.04 59.4924 1389.96 60.483C1388.88 61.5636 1388.43 62.7343 1388.43 64.2652V254.45C1388.43 255.891 1388.97 257.152 1389.96 258.232C1390.95 259.313 1392.21 259.763 1393.74 259.763Z" fill="white"/>
</g>
</g>
</svg>
