<svg width="57" height="57" viewBox="0 0 57 57" fill="none" xmlns="http://www.w3.org/2000/svg">
<g clip-path="url(#clip0_523_18999)">
<rect width="57" height="57" rx="28.5" fill="url(#paint0_linear_523_18999)"/>
<g clip-path="url(#clip1_523_18999)">
<path d="M22.8812 40.0088C22.8425 40.0088 22.7908 40.0346 22.7521 40.0346C20.2462 38.7946 18.2054 36.7408 16.9525 34.235C16.9525 34.1963 16.9783 34.1446 16.9783 34.1058C18.5542 34.5708 20.1817 34.9196 21.7962 35.1908C22.0804 36.8183 22.4162 38.4329 22.8812 40.0088Z" fill="white"/>
<path d="M40.0475 34.2479C38.7688 36.8183 36.6375 38.8979 34.0413 40.1508C34.5321 38.5104 34.9454 36.8571 35.2167 35.1908C36.8442 34.9196 38.4458 34.5708 40.0217 34.1058C40.0088 34.1575 40.0475 34.2092 40.0475 34.2479Z" fill="white"/>
<path d="M40.1508 22.9587C38.5233 22.4679 36.8829 22.0675 35.2167 21.7833C34.9454 20.117 34.545 18.4637 34.0413 16.8491C36.715 18.1279 38.8721 20.285 40.1508 22.9587Z" fill="white"/>
<path d="M22.8812 16.9913C22.4163 18.5671 22.0804 20.1688 21.8092 21.7963C20.1429 22.0546 18.4896 22.4679 16.8492 22.9588C18.1021 20.3625 20.1817 18.2313 22.7521 16.9525C22.7908 16.9525 22.8425 16.9913 22.8812 16.9913Z" fill="white"/>
<path d="M33.0079 21.5121C30.0112 21.1763 26.9887 21.1763 23.9921 21.5121C24.315 19.7425 24.7283 17.973 25.3096 16.268C25.3354 16.1646 25.3225 16.0871 25.3354 15.9838C26.3558 15.7384 27.4021 15.5834 28.5 15.5834C29.585 15.5834 30.6442 15.7384 31.6517 15.9838C31.6646 16.0871 31.6646 16.1646 31.6904 16.268C32.2717 17.9859 32.685 19.7425 33.0079 21.5121Z" fill="white"/>
<path d="M21.5121 33.0079C19.7296 32.685 17.9729 32.2716 16.2679 31.6904C16.1646 31.6646 16.0871 31.6775 15.9838 31.6646C15.7383 30.6441 15.5833 29.5979 15.5833 28.5C15.5833 27.415 15.7383 26.3558 15.9838 25.3483C16.0871 25.3354 16.1646 25.3354 16.2679 25.3096C17.9858 24.7412 19.7296 24.315 21.5121 23.9921C21.1892 26.9887 21.1892 30.0112 21.5121 33.0079Z" fill="white"/>
<path d="M41.4167 28.5C41.4167 29.5979 41.2617 30.6441 41.0162 31.6646C40.9129 31.6775 40.8354 31.6646 40.7321 31.6904C39.0142 32.2587 37.2575 32.685 35.4879 33.0079C35.8237 30.0112 35.8237 26.9887 35.4879 23.9921C37.2575 24.315 39.0271 24.7283 40.7321 25.3096C40.8354 25.3354 40.9129 25.3483 41.0162 25.3483C41.2617 26.3687 41.4167 27.415 41.4167 28.5Z" fill="white"/>
<path d="M33.0079 35.4879C32.685 37.2704 32.2717 39.0271 31.6904 40.7321C31.6646 40.8354 31.6646 40.9129 31.6517 41.0162C30.6442 41.2617 29.585 41.4167 28.5 41.4167C27.4021 41.4167 26.3558 41.2617 25.3354 41.0162C25.3225 40.9129 25.3354 40.8354 25.3096 40.7321C24.7412 39.0142 24.315 37.2704 23.9921 35.4879C25.4904 35.6558 26.9887 35.7721 28.5 35.7721C30.0112 35.7721 31.5225 35.6558 33.0079 35.4879Z" fill="white"/>
<path d="M33.361 33.361C30.1304 33.7686 26.8696 33.7686 23.639 33.361C23.2314 30.1304 23.2314 26.8697 23.639 23.6391C26.8696 23.2315 30.1304 23.2315 33.361 23.6391C33.7686 26.8697 33.7686 30.1304 33.361 33.361Z" fill="white"/>
</g>
<rect x="-95.0703" y="-61.1088" width="247.144" height="153.384" fill="url(#paint1_linear_523_18999)"/>
<g clip-path="url(#clip2_523_18999)">
<path d="M22.8812 40.0088C22.8425 40.0088 22.7908 40.0346 22.7521 40.0346C20.2462 38.7946 18.2054 36.7408 16.9525 34.235C16.9525 34.1963 16.9783 34.1446 16.9783 34.1058C18.5542 34.5708 20.1817 34.9196 21.7962 35.1908C22.0804 36.8183 22.4162 38.4329 22.8812 40.0088Z" fill="white"/>
<path d="M40.0475 34.2479C38.7688 36.8183 36.6375 38.8979 34.0413 40.1508C34.5321 38.5104 34.9454 36.8571 35.2167 35.1908C36.8442 34.9196 38.4458 34.5708 40.0217 34.1058C40.0088 34.1575 40.0475 34.2092 40.0475 34.2479Z" fill="white"/>
<path d="M40.1508 22.9587C38.5233 22.4679 36.8829 22.0675 35.2167 21.7833C34.9454 20.117 34.545 18.4637 34.0413 16.8491C36.715 18.1279 38.8721 20.285 40.1508 22.9587Z" fill="white"/>
<path d="M22.8812 16.9913C22.4163 18.5671 22.0804 20.1688 21.8092 21.7963C20.1429 22.0546 18.4896 22.4679 16.8492 22.9588C18.1021 20.3625 20.1817 18.2313 22.7521 16.9525C22.7908 16.9525 22.8425 16.9913 22.8812 16.9913Z" fill="white"/>
<path d="M33.0079 21.5121C30.0112 21.1763 26.9887 21.1763 23.9921 21.5121C24.315 19.7425 24.7283 17.973 25.3096 16.268C25.3354 16.1646 25.3225 16.0871 25.3354 15.9838C26.3558 15.7384 27.4021 15.5834 28.5 15.5834C29.585 15.5834 30.6442 15.7384 31.6517 15.9838C31.6646 16.0871 31.6646 16.1646 31.6904 16.268C32.2717 17.9859 32.685 19.7425 33.0079 21.5121Z" fill="white"/>
<path d="M21.5121 33.0079C19.7296 32.685 17.9729 32.2716 16.2679 31.6904C16.1646 31.6646 16.0871 31.6775 15.9838 31.6646C15.7383 30.6441 15.5833 29.5979 15.5833 28.5C15.5833 27.415 15.7383 26.3558 15.9838 25.3483C16.0871 25.3354 16.1646 25.3354 16.2679 25.3096C17.9858 24.7412 19.7296 24.315 21.5121 23.9921C21.1892 26.9887 21.1892 30.0112 21.5121 33.0079Z" fill="white"/>
<path d="M41.4167 28.5C41.4167 29.5979 41.2617 30.6441 41.0162 31.6646C40.9129 31.6775 40.8354 31.6646 40.7321 31.6904C39.0142 32.2587 37.2575 32.685 35.4879 33.0079C35.8237 30.0112 35.8237 26.9887 35.4879 23.9921C37.2575 24.315 39.0271 24.7283 40.7321 25.3096C40.8354 25.3354 40.9129 25.3483 41.0162 25.3483C41.2617 26.3687 41.4167 27.415 41.4167 28.5Z" fill="white"/>
<path d="M33.0079 35.4879C32.685 37.2704 32.2717 39.0271 31.6904 40.7321C31.6646 40.8354 31.6646 40.9129 31.6517 41.0162C30.6442 41.2617 29.585 41.4167 28.5 41.4167C27.4021 41.4167 26.3558 41.2617 25.3354 41.0162C25.3225 40.9129 25.3354 40.8354 25.3096 40.7321C24.7412 39.0142 24.315 37.2704 23.9921 35.4879C25.4904 35.6558 26.9887 35.7721 28.5 35.7721C30.0112 35.7721 31.5225 35.6558 33.0079 35.4879Z" fill="white"/>
<path d="M33.361 33.361C30.1304 33.7686 26.8696 33.7686 23.639 33.361C23.2314 30.1304 23.2314 26.8697 23.639 23.6391C26.8696 23.2315 30.1304 23.2315 33.361 23.6391C33.7686 26.8697 33.7686 30.1304 33.361 33.361Z" fill="white"/>
</g>
</g>
<defs>
<linearGradient id="paint0_linear_523_18999" x1="1.40577" y1="142.499" x2="87.5713" y2="48.1332" gradientUnits="userSpaceOnUse">
<stop stop-color="#21024D"/>
<stop offset="0.195" stop-color="#601436"/>
<stop offset="0.5" stop-color="#AA2A1D"/>
<stop offset="0.745" stop-color="#FF4300"/>
<stop offset="0.945" stop-color="#FF8C62"/>
</linearGradient>
<linearGradient id="paint1_linear_523_18999" x1="-88.9751" y1="322.349" x2="110.763" y2="-30.1121" gradientUnits="userSpaceOnUse">
<stop stop-color="#21024D"/>
<stop offset="0.195" stop-color="#601436"/>
<stop offset="0.5" stop-color="#AA2A1D"/>
<stop offset="0.745" stop-color="#FF4300"/>
<stop offset="0.945" stop-color="#FF8C62"/>
</linearGradient>
<clipPath id="clip0_523_18999">
<rect width="57" height="57" rx="28.5" fill="white"/>
</clipPath>
<clipPath id="clip1_523_18999">
<rect width="31" height="31" fill="white" transform="translate(13 13)"/>
</clipPath>
<clipPath id="clip2_523_18999">
<rect width="31" height="31" fill="white" transform="translate(13 13)"/>
</clipPath>
</defs>
</svg>
