<svg width="1650" height="83" viewBox="0 0 1650 83" fill="none" xmlns="http://www.w3.org/2000/svg">
<g opacity="0.65">
<g opacity="0.85">
<path d="M20.2649 102.904C16.6589 102.904 13.3436 102.003 10.3483 100.2C7.3529 98.3966 4.93918 95.9828 3.13616 92.9875C1.33313 89.9921 0.431641 86.6769 0.431641 83.0708V19.9358C0.431641 16.3298 1.33313 13.0145 3.13616 10.0192C4.93918 7.02384 7.3529 4.61008 10.3483 2.80706C13.3436 1.00403 16.6589 0.102539 20.2649 0.102539H83.2545C86.8606 0.102539 90.2049 1.00403 93.2584 2.80706C96.3119 4.61008 98.7256 7.02384 100.529 10.0192C102.332 13.0145 103.233 16.3298 103.233 19.9358V27.9331H84.2432V20.7792C84.2432 20.3139 84.0397 19.9068 83.6616 19.5578C83.2836 19.2088 82.8474 19.0634 82.3821 19.0634H20.9629C20.4976 19.0634 20.0904 19.2379 19.7415 19.5578C19.3925 19.9068 19.247 20.2848 19.247 20.7792V82.1984C19.247 82.6637 19.4216 83.0708 19.7415 83.4198C20.0614 83.7687 20.4685 83.9142 20.9629 83.9142H82.3821C82.8474 83.9142 83.2836 83.7397 83.6616 83.4198C84.0397 83.0708 84.2432 82.6928 84.2432 82.1984V63.6447H60.9784V44.6548H103.262V83.0708C103.262 86.6769 102.361 89.9921 100.558 92.9875C98.7547 95.9828 96.3119 98.3966 93.2875 100.2C90.2339 102.003 86.9187 102.904 83.2836 102.904H20.294H20.2649Z" fill="#EC5B29"/>
<path d="M167.068 102.904C163.462 102.904 160.146 102.003 157.151 100.2C154.156 98.3966 151.742 95.9828 149.939 92.9875C148.136 89.9921 147.234 86.6769 147.234 83.0708V19.9358C147.234 16.3298 148.136 13.0145 149.939 10.0192C151.742 7.02384 154.156 4.61008 157.151 2.80706C160.146 1.00403 163.462 0.102539 167.068 0.102539H230.203C233.809 0.102539 237.124 1.00403 240.119 2.80706C243.115 4.61008 245.528 7.02384 247.331 10.0192C249.134 13.0145 250.036 16.3298 250.036 19.9358V83.0708C250.036 86.6769 249.134 89.9921 247.331 92.9875C245.528 95.9828 243.115 98.3966 240.119 100.2C237.124 102.003 233.809 102.904 230.203 102.904H167.068ZM167.766 83.9142H229.185C229.65 83.9142 230.086 83.7397 230.464 83.4198C230.842 83.0999 231.046 82.6928 231.046 82.1984V20.7792C231.046 20.3139 230.842 19.9068 230.464 19.5578C230.086 19.2088 229.65 19.0634 229.185 19.0634H167.766C167.3 19.0634 166.893 19.2379 166.544 19.5578C166.195 19.8777 166.05 20.2848 166.05 20.7792V82.1984C166.05 82.6637 166.224 83.0708 166.544 83.4198C166.864 83.7687 167.271 83.9142 167.766 83.9142Z" fill="#EC5B29"/>
</g>
<g opacity="0.3">
<path d="M313.868 102.903C310.233 102.903 306.947 102.002 303.952 100.199C300.956 98.3956 298.543 95.9818 296.74 92.9865C294.937 89.9911 294.035 86.6759 294.035 83.0698V19.9349C294.035 16.3288 294.937 13.0136 296.74 10.0182C298.543 7.02287 300.956 4.60911 303.952 2.80608C306.947 1.00305 310.262 0.101562 313.868 0.101562H377.003C380.61 0.101562 383.925 1.00305 386.92 2.80608C389.915 4.60911 392.329 7.02287 394.132 10.0182C395.935 13.0136 396.837 16.3288 396.837 19.9349V83.0698C396.837 86.6759 395.935 89.9911 394.132 92.9865C392.329 95.9818 389.915 98.3956 386.92 100.199C383.925 102.002 380.61 102.903 377.003 102.903H313.868ZM314.595 83.9132H376.015C376.48 83.9132 376.916 83.7387 377.294 83.4188C377.672 83.0698 377.876 82.6918 377.876 82.1974V20.7782C377.876 20.313 377.672 19.9058 377.294 19.5568C376.916 19.2078 376.48 19.0625 376.015 19.0625H314.595C314.13 19.0625 313.723 19.2369 313.374 19.5568C313.025 19.9058 312.88 20.2839 312.88 20.7782V82.1974C312.88 82.6627 313.054 83.0698 313.374 83.4188C313.694 83.7678 314.101 83.9132 314.595 83.9132Z" fill="white"/>
<path d="M441.395 102.909V0.078125H524.217C527.823 0.078125 531.168 0.979617 534.221 2.78264C537.275 4.58567 539.689 6.99934 541.492 9.99469C543.295 12.99 544.196 16.3053 544.196 19.9113V83.0464C544.196 86.6525 543.295 89.9676 541.492 92.963C539.689 95.9583 537.246 98.3721 534.221 100.175C531.168 101.978 527.853 102.88 524.217 102.88H441.395V102.909ZM461.839 83.9188H523.403C523.868 83.9188 524.305 83.7443 524.683 83.4244C525.061 83.1045 525.264 82.6974 525.264 82.203V20.7838C525.264 20.3185 525.061 19.9114 524.683 19.5624C524.305 19.2134 523.868 19.0681 523.403 19.0681H461.839C461.373 19.0681 460.966 19.2425 460.617 19.5624C460.268 19.9114 460.123 20.2895 460.123 20.7838V82.203C460.123 82.6683 460.297 83.0754 460.617 83.4244C460.937 83.7734 461.344 83.9188 461.839 83.9188Z" fill="white"/>
</g>
<g opacity="0.85">
<path d="M672.187 102.904C668.552 102.904 665.265 102.003 662.27 100.2C659.275 98.3966 656.861 95.9828 655.058 92.9875C653.255 89.9921 652.354 86.6769 652.354 83.0708V19.9358C652.354 16.3298 653.255 13.0145 655.058 10.0192C656.861 7.02384 659.275 4.61008 662.27 2.80706C665.265 1.00403 668.581 0.102539 672.187 0.102539H754.864V19.0925H676.171C674.659 19.0925 673.437 19.5287 672.536 20.372C671.634 21.2154 671.169 22.4659 671.169 24.0944V78.9413C671.169 80.4536 671.605 81.675 672.536 82.5765C673.466 83.478 674.659 83.9433 676.171 83.9433H754.864V102.933H672.187V102.904Z" fill="#EC5B29"/>
<path d="M817.825 102.904C814.219 102.904 810.904 102.003 807.909 100.2C804.913 98.3966 802.5 95.9828 800.697 92.9875C798.894 89.9921 797.992 86.6769 797.992 83.0708V19.9358C797.992 16.3298 798.894 13.0145 800.697 10.0192C802.5 7.02384 804.913 4.61008 807.909 2.80706C810.904 1.00403 814.219 0.102539 817.825 0.102539H880.96C884.566 0.102539 887.882 1.00403 890.877 2.80706C893.872 4.61008 896.286 7.02384 898.089 10.0192C899.892 13.0145 900.794 16.3298 900.794 19.9358V83.0708C900.794 86.6769 899.892 89.9921 898.089 92.9875C896.286 95.9828 893.872 98.3966 890.877 100.2C887.882 102.003 884.566 102.904 880.96 102.904H817.825ZM818.553 83.9142H879.972C880.437 83.9142 880.873 83.7397 881.251 83.4198C881.629 83.0999 881.833 82.6928 881.833 82.1984V20.7792C881.833 20.3139 881.629 19.9068 881.251 19.5578C880.873 19.2088 880.437 19.0634 879.972 19.0634H818.553C818.058 19.0634 817.68 19.2379 817.331 19.5578C816.982 19.9068 816.837 20.2848 816.837 20.7792V82.1984C816.837 82.6637 817.011 83.0708 817.331 83.4198C817.651 83.7687 818.058 83.9142 818.553 83.9142Z" fill="#EC5B29"/>
</g>
<g opacity="0.3">
<path d="M945.08 102.909V0.078125H965.786L1003.07 44.4849L1040.2 0.078125H1061.06V102.909H1042.07V27.5015L1003.07 73.9149L963.925 27.6469V102.909H945.08Z" fill="white"/>
<path d="M1106.02 102.906V0.220703H1188.84C1192.44 0.220703 1195.79 1.12219 1198.84 2.92522C1201.9 4.72825 1204.31 7.14201 1206.11 10.1374C1207.92 13.1327 1208.82 16.448 1208.82 20.054V47.7683C1208.82 51.3743 1207.92 54.7186 1206.11 57.7722C1204.31 60.8257 1201.87 63.2103 1198.84 64.9842C1195.79 66.7581 1192.47 67.6306 1188.84 67.6306L1124.86 67.7761V102.906H1106.02ZM1126.61 48.6407H1188.02C1188.49 48.6407 1188.93 48.4953 1189.3 48.2045C1189.68 47.9137 1189.89 47.5356 1189.89 47.0703V20.781C1189.89 20.3157 1189.68 19.9086 1189.3 19.5596C1188.93 19.2106 1188.49 19.0653 1188.02 19.0653H1126.61C1126.14 19.0653 1125.73 19.2397 1125.38 19.5596C1125.03 19.9086 1124.89 20.2867 1124.89 20.781V47.0703C1124.89 47.5356 1125.06 47.9137 1125.38 48.2045C1125.7 48.4953 1126.11 48.6407 1126.61 48.6407Z" fill="white"/>
<path d="M1247.99 19.9437C1247.99 16.3376 1248.89 13.0224 1250.69 10.027C1252.5 7.03166 1254.91 4.6179 1257.9 2.81487C1260.9 1.01184 1264.22 0.110352 1267.82 0.110352H1330.81C1334.42 0.110352 1337.76 1.01184 1340.81 2.81487C1343.87 4.6179 1346.28 7.03166 1348.09 10.027C1349.89 13.0224 1350.79 16.3376 1350.79 19.9437V102.912H1331.8V68.3636H1266.83V102.912H1247.99V19.9437ZM1331.8 49.5191V20.8161C1331.8 20.3508 1331.6 19.9437 1331.22 19.5947C1330.84 19.2457 1330.4 19.1003 1329.94 19.1003H1268.52C1268.05 19.1003 1267.65 19.2748 1267.3 19.5947C1266.95 19.9437 1266.8 20.3217 1266.8 20.8161V49.5191H1331.77H1331.8Z" fill="white"/>
<path d="M1395.64 102.909V0.078125H1416.34L1479.48 75.1945V0.078125H1498.47V102.909H1477.76L1414.51 27.6469V102.909H1395.67H1395.64Z" fill="white"/>
<path d="M1583 102.909V64.3472L1535.6 0.078125H1557.88L1592.57 43.6415L1626.86 0.078125H1649.57L1602.02 64.4927V102.909H1583.03H1583Z" fill="white"/>
</g>
</g>
</svg>
